:SAMPLES-PER-SECOND 30
:FULLY-SPECIFIED
:DEGREES
254
root  0.736693 38.2736 -38.3702 -1.63198 -40.1147 -1.56831
RightUpLeg  -9.04277 7.09147 -10.4665
RightLeg  42.1335 -6.23491 -6.35344
RightFoot  -5.78961 -0.431816 8.0599
RightToes  -5.82094e-011 -1.98785e-016 -5.10186e-018
Spine  16.4996 1.48191 -8.63282
Spine1  4.52653 -0.802929 -0.439912
HEad  2.89605 31.8907 -9.36921
LeftShoulder1  1.3959 -0.761534 -26.5625
LeftArm  -14.1242 24.5423 -46.7858
LeftForeArm  148.653 -82.2563 -90.7871
LeftHand  -0.540661 0.518708 12.9395
RightShoulder  3.53916 6.46942 29.5669
RightArm  -2.80988 -25.2555 41.3562
RightForeArm  23.0712 14.0676 7.32032
RightHand  -2.61327 9.88791 -20.0099
LeftUpLeg  -1.75228 11.5786 -2.41057
LeftLeg  30.0599 16.3312 10.32
LeftFoot  -27.092 -0.636978 -5.76787
LeftToes  -8.4584e-011 5.90861e-011 8.40072e-012
255
root  0.523656 38.9004 -39.1143 1.31218 -40.3271 -2.522
RightUpLeg  -5.17444 0.459522 -10.3937
RightLeg  33.1458 -5.21046 -3.90442
RightFoot  -6.36573 -0.46907 9.86356
RightToes  -5.82094e-011 -1.98785e-016 -5.10186e-018
Spine  11.3336 0.876018 -7.79692
Spine1  5.68747 -1.11423 1.11329
HEad  6.82072 32.0697 -8.9319
LeftShoulder1  1.08303 0.168564 -26.2997
LeftArm  -14.0507 28.5699 -48.8754
LeftForeArm  148.489 -82.2654 -90.3253
LeftHand  -0.541548 -1.42585 9.48682
RightShoulder  3.28186 5.7842 29.412
RightArm  -7.77466 -29.1416 41.3118
RightForeArm  27.7564 12.3084 8.1606
RightHand  -2.44475 9.94425 -18.6893
LeftUpLeg  -3.06872 9.49983 -1.57619
LeftLeg  25.6002 17.9828 9.487
LeftFoot  -23.9732 -0.560516 -6.34887
LeftToes  -8.4584e-011 5.90861e-011 8.40072e-012
256
root  0.351061 39.2715 -39.9497 4.40313 -40.6925 -4.12084
RightUpLeg  -1.9983 -4.55932 -9.59568
RightLeg  25.7505 -5.7025 -3.11762
RightFoot  -5.37694 -0.74091 12.7386
RightToes  -5.82094e-011 -1.98785e-016 -5.10186e-018
Spine  8.25656 0.307725 -6.27497
Spine1  4.80872 -1.36966 2.20036
HEad  9.41452 32.404 -8.18704
LeftShoulder1  0.906028 0.638113 -25.4185
LeftArm  -15.522 32.4192 -50.8542
LeftForeArm  151.717 -82.2581 -93.3339
LeftHand  -0.536545 -3.8407 6.94938
RightShoulder  2.96245 4.96991 29.0376
RightArm  -10.9827 -32.3262 40.9588
RightForeArm  26.5282 11.1112 8.81687
RightHand  -2.14079 8.81135 -17.713
LeftUpLeg  -5.46041 9.36255 0.395206
LeftLeg  23.7731 18.3081 8.93232
LeftFoot  -21.2903 -0.4325 -6.42439
LeftToes  -8.4584e-011 5.90861e-011 8.40072e-012
257
root  0.216058 39.3522 -40.9466 6.20923 -41.2464 -5.34068
RightUpLeg  1.54612 -8.29568 -9.03529
RightLeg  19.2859 -7.24516 -3.15176
RightFoot  -4.08268 -1.29077 20.293
RightToes  -5.82094e-011 -1.98785e-016 -5.10186e-018
Spine  6.98866 -0.0651269 -5.54635
Spine1  4.21853 -1.73613 3.35577
HEad  9.107 33.1895 -8.62481
LeftShoulder1  0.831228 0.778841 -24.2557
LeftArm  -17.1128 34.8555 -51.962
LeftForeArm  158.873 -82.1201 -100.876
LeftHand  -0.448997 -3.98703 5.82738
RightShoulder  2.74575 4.46508 28.5226
RightArm  -13.437 -33.623 40.8454
RightForeArm  25.8824 9.93566 9.35114
RightHand  -1.93306 7.95097 -17.037
LeftUpLeg  -8.42738 10.5068 2.40917
LeftLeg  25.1865 17.3367 9.01311
LeftFoot  -19.9103 -0.339605 -6.11694
LeftToes  -8.4584e-011 5.90861e-011 8.40072e-012
258
root  0.11243 39.2314 -41.9836 5.63934 -42.2805 -5.82027
RightUpLeg  5.295 -13.223 -9.37653
RightLeg  13.9673 -1.35274 -0.433193
RightFoot  -9.30917 -0.477789 20.9651
RightToes  -5.82094e-011 -1.98785e-016 -5.10186e-018
Spine  8.31585 0.0773159 -5.88452
Spine1  4.01485 -2.05335 5.80653
HEad  5.67019 34.2057 -10.6108
LeftShoulder1  0.836462 0.720649 -23.7574
LeftArm  -17.9783 35.1756 -51.2067
LeftForeArm  168.506 -81.6956 -111.106
LeftHand  -0.497256 -3.81351 6.53731
RightShoulder  2.62362 4.24781 27.8995
RightArm  -14.2826 -33.1223 40.5955
RightForeArm  27.9499 9.24046 9.49743
RightHand  -1.77392 7.84611 -15.7986
LeftUpLeg  -9.75989 12.2339 4.14592
LeftLeg  27.5872 16.0594 9.23858
LeftFoot  -19.1648 -0.272237 -5.6617
LeftToes  -8.4584e-011 5.90861e-011 8.40072e-012
259
root  0.133197 38.9725 -43.0517 5.47779 -43.4476 -7.43959
RightUpLeg  5.98995 -14.8859 -7.72005
RightLeg  13.2485 0.539411 0.367813
RightFoot  -13.3868 0.214146 16.1497
RightToes  -5.82094e-011 -1.98785e-016 -5.10186e-018
Spine  10.8142 -0.0152193 -3.91443
Spine1  3.73368 -2.02107 6.9573
HEad  0.782739 35.1695 -13.8485
LeftShoulder1  0.911425 0.559205 -24.7771
LeftArm  -17.989 32.9588 -47.9168
LeftForeArm  175.961 -81.1876 -118.681
LeftHand  -0.466079 -3.05486 6.646
RightShoulder  2.65692 4.33146 27.959
RightArm  -11.1891 -31.4882 39.6145
RightForeArm  28.3248 10.1103 9.20138
RightHand  -1.65022 7.40058 -15.2324
LeftUpLeg  -11.4266 13.9517 6.81668
LeftLeg  31.3796 14.703 9.82471
LeftFoot  -18.4476 -0.263071 -6.01061
LeftToes  -8.4584e-011 5.90861e-011 8.40072e-012
